<?xml version="1.0" encoding="UTF-8" standalone="no"?>
<svg width="19px" height="15px" viewBox="0 0 19 15" version="1.1" xmlns="http://www.w3.org/2000/svg" xmlns:xlink="http://www.w3.org/1999/xlink" xmlns:sketch="http://www.bohemiancoding.com/sketch/ns">
    <!-- Generator: Sketch 3.4 (15575) - http://www.bohemiancoding.com/sketch -->
    <title>Full Screen</title>
    <desc>Created with Sketch.</desc>
    <defs></defs>
    <g id="Page-1" stroke="none" stroke-width="1" fill="none" fill-rule="evenodd" sketch:type="MSPage">
        <g id="Desktop-HD" sketch:type="MSArtboardGroup" transform="translate(-1196.000000, -764.000000)" fill="#FFFFFF">
            <g id="Full-Screen" sketch:type="MSLayerGroup" transform="translate(1196.000000, 764.000000)">
                <g id="Group" sketch:type="MSShapeGroup">
                    <g id="Shape">
                        <path d="M0.933173077,5.09625 C0.537115385,5.09625 0.216057692,4.77490385 0.216057692,4.37913462 L0.216057692,0.873173077 C0.216057692,0.477115385 0.537115385,0.156057692 0.933173077,0.156057692 L6.27230769,0.156057692 C6.66836538,0.156057692 6.98942308,0.477403846 6.98942308,0.873173077 C6.98942308,1.26894231 6.66836538,1.59028846 6.27230769,1.59028846 L1.65028846,1.59028846 L1.65028846,4.37913462 C1.65028846,4.77519231 1.32923077,5.09625 0.933173077,5.09625 L0.933173077,5.09625 Z"></path>
                        <path d="M17.8266346,5.09625 C17.4305769,5.09625 17.1095192,4.77490385 17.1095192,4.37913462 L17.1095192,1.59028846 L12.4877885,1.59028846 C12.0917308,1.59028846 11.7706731,1.26894231 11.7706731,0.873173077 C11.7706731,0.477403846 12.0917308,0.156057692 12.4877885,0.156057692 L17.8266346,0.156057692 C18.2226923,0.156057692 18.54375,0.477403846 18.54375,0.873173077 L18.54375,4.37913462 C18.5440385,4.77519231 18.2229808,5.09625 17.8266346,5.09625 L17.8266346,5.09625 Z"></path>
                        <path d="M6.27230769,14.8179808 L0.933173077,14.8179808 C0.537115385,14.8179808 0.216057692,14.4966346 0.216057692,14.1008654 L0.216057692,10.5946154 C0.216057692,10.1985577 0.537115385,9.8775 0.933173077,9.8775 C1.32923077,9.8775 1.65028846,10.1988462 1.65028846,10.5946154 L1.65028846,13.3834615 L6.27230769,13.3834615 C6.66836538,13.3834615 6.98942308,13.7048077 6.98942308,14.1005769 C6.98942308,14.4966346 6.66836538,14.8179808 6.27230769,14.8179808 L6.27230769,14.8179808 Z"></path>
                        <path d="M17.8266346,14.8179808 L12.4877885,14.8179808 C12.0917308,14.8179808 11.7706731,14.4966346 11.7706731,14.1008654 C11.7706731,13.7048077 12.0917308,13.38375 12.4877885,13.38375 L17.1095192,13.38375 L17.1095192,10.5949038 C17.1095192,10.1988462 17.4305769,9.87778846 17.8266346,9.87778846 C18.2226923,9.87778846 18.54375,10.1991346 18.54375,10.5949038 L18.54375,14.1008654 C18.5440385,14.4966346 18.2229808,14.8179808 17.8266346,14.8179808 L17.8266346,14.8179808 Z"></path>
                    </g>
                </g>
            </g>
        </g>
    </g>
</svg>