<?xml version="1.0" encoding="UTF-8" standalone="no"?>
<svg width="33px" height="15px" viewBox="0 0 33 15" version="1.1" xmlns="http://www.w3.org/2000/svg" xmlns:xlink="http://www.w3.org/1999/xlink" xmlns:sketch="http://www.bohemiancoding.com/sketch/ns">
    <!-- Generator: Sketch 3.4 (15575) - http://www.bohemiancoding.com/sketch -->
    <title>HD</title>
    <desc>Created with Sketch.</desc>
    <defs></defs>
    <g id="Page-1" stroke="none" stroke-width="1" fill="none" fill-rule="evenodd" sketch:type="MSPage">
        <g id="Desktop-HD" sketch:type="MSArtboardGroup" transform="translate(-1192.000000, -766.000000)" fill="#FEFEFE">
            <path d="M1192,781 L1196.17857,781 L1197.7,775.3 L1202.99286,775.3 L1201.47143,781 L1205.62857,781 L1209.65714,766 L1205.5,766 L1203.97857,771.614286 L1198.68571,771.614286 L1200.20714,766 L1196.05,766 L1192,781 Z M1208.25071,781 L1214.31499,781 C1217.78642,781 1220.37928,780.035714 1222.17928,778.235714 C1223.78642,776.628571 1224.64357,774.571429 1224.64357,772.321429 C1224.64357,770.5 1224.12928,769.042857 1223.01499,767.928571 C1221.87928,766.792857 1220.05785,766 1217.14357,766 L1212.30071,766 L1208.25071,781 Z M1219.62928,770.585714 C1220.10071,771.057143 1220.37928,771.721429 1220.37928,772.642857 C1220.37928,773.842857 1219.88642,775 1219.09357,775.792857 C1218.10785,776.778571 1216.54357,777.314286 1214.78642,777.314286 L1213.41499,777.314286 L1215.47214,769.664286 L1216.69357,769.664286 C1218.12928,769.664286 1219.05071,770.028571 1219.62928,770.585714 L1219.62928,770.585714 Z" id="HD" sketch:type="MSShapeGroup"></path>
        </g>
    </g>
</svg>