<?xml version="1.0" encoding="UTF-8" standalone="no"?>
<svg width="38px" height="38px" viewBox="0 0 38 38" version="1.1" xmlns="http://www.w3.org/2000/svg" xmlns:xlink="http://www.w3.org/1999/xlink" xmlns:sketch="http://www.bohemiancoding.com/sketch/ns">
    <!-- Generator: Sketch 3.4 (15575) - http://www.bohemiancoding.com/sketch -->
    <title>PAYSE</title>
    <desc>Created with Sketch.</desc>
    <defs></defs>
    <g id="Page-1" stroke="none" stroke-width="1" fill="none" fill-rule="evenodd" sketch:type="MSPage">
        <g id="Desktop-HD" sketch:type="MSArtboardGroup" transform="translate(-204.000000, -753.000000)" fill="#FEFEFE">
            <g id="Gauche-Control" sketch:type="MSLayerGroup" transform="translate(168.000000, 753.000000)">
                <g id="PAYSE" transform="translate(36.000000, 0.000000)" sketch:type="MSShapeGroup">
                    <g id="Group">
                        <path d="M19,0 C8.50668,0 0,8.50668 0,19 C0,29.49332 8.50668,38 19,38 C29.49256,38 38,29.49332 38,19 C38,8.50668 29.49332,0 19,0 L19,0 Z M19,36.48 C9.36092,36.48 1.52,28.63832 1.52,19 C1.52,9.36168 9.36092,1.52 19,1.52 C28.63908,1.52 36.48,9.36168 36.48,19 C36.48,28.63832 28.63984,36.48 19,36.48 Z M13,11 L17,11 L17,27 L13,27 L13,11 Z M22,11 L26,11 L26,27 L22,27 L22,11 Z" id="Shape"></path>
                    </g>
                </g>
            </g>
        </g>
    </g>
</svg>