<?xml version="1.0" encoding="UTF-8" standalone="no"?>
<svg width="24px" height="20px" viewBox="0 0 24 20" version="1.1" xmlns="http://www.w3.org/2000/svg" xmlns:xlink="http://www.w3.org/1999/xlink" xmlns:sketch="http://www.bohemiancoding.com/sketch/ns">
    <!-- Generator: Sketch 3.4 (15575) - http://www.bohemiancoding.com/sketch -->
    <title>noun_219115_cc</title>
    <desc>Created with Sketch.</desc>
    <defs></defs>
    <g id="Page-1" stroke="none" stroke-width="1" fill="none" fill-rule="evenodd" sketch:type="MSPage">
        <g id="Desktop-HD" sketch:type="MSArtboardGroup" transform="translate(-1146.000000, -761.000000)" fill="#FFFFFF">
            <g id="noun_219115_cc" sketch:type="MSLayerGroup" transform="translate(1146.000000, 761.000000)">
                <g id="Group" sketch:type="MSShapeGroup">
                    <g id="Shape">
                        <path d="M3.78451613,14.3632258 L5.10258065,16.036129 L1.5783871,16.036129 L1.5783871,4.11903226 L15.5967742,4.11903226 L15.0258065,3.39451613 L15.4554839,2.82870968 L0.288064516,2.82870968 L0.288064516,17.3264516 L5.04612903,17.3264516 L3.77774194,18.9974194 L4.80516129,19.7777419 L7.20387097,16.6180645 L4.7983871,13.5648387 L3.78451613,14.3632258 Z"></path>
                        <path d="M18.6803226,2.82870968 L20.0570968,1.01516129 L19.0293548,0.23483871 L16.6309677,3.39451613 L19.0364516,6.44774194 L20.05,5.64903226 L18.8445161,4.11903226 L22.546129,4.11903226 L22.546129,16.036129 L8.32741935,16.036129 L8.78580645,16.6180645 L8.24806452,17.3264516 L23.8364516,17.3264516 L23.8364516,2.82870968 L18.6803226,2.82870968 Z"></path>
                    </g>
                </g>
            </g>
        </g>
    </g>
</svg>