<?xml version="1.0" standalone="no"?>
<!DOCTYPE svg PUBLIC "-//W3C//DTD SVG 20010904//EN"
 "http://www.w3.org/TR/2001/REC-SVG-20010904/DTD/svg10.dtd">
<svg version="1.0" xmlns="http://www.w3.org/2000/svg"
 width="2880.000000pt" height="2880.000000pt" viewBox="0 0 2880.000000 2880.000000"
 preserveAspectRatio="xMidYMid meet">
<metadata>
Created by potrace 1.11, written by Peter Selinger 2001-2013
</metadata>
<g transform="translate(0.000000,2880.000000) scale(0.100000,-0.100000)"
fill="#000000" stroke="none">
<path d="M17861 22460 c-71 -30 -111 -84 -111 -150 0 -35 45 -125 154 -309 58
-99 143 -244 187 -321 42 -75 115 -203 202 -355 26 -44 59 -100 74 -125 15
-25 50 -85 78 -135 89 -156 165 -288 299 -517 29 -51 70 -123 91 -160 20 -37
41 -70 46 -74 5 -3 7 -10 4 -15 -4 -5 -424 -9 -1071 -9 l-1064 0 0 -270 0
-270 -7050 0 -7050 0 0 -6095 0 -6095 545 0 545 0 0 -545 0 -545 10660 0
10660 0 0 545 0 545 545 0 545 0 0 6095 0 6095 -2307 0 -2308 0 3 270 3 270
-1013 1 c-868 1 -1769 11 -1571 17 l61 2 67 80 67 80 -45 73 c-24 39 -63 106
-87 147 -23 41 -70 123 -103 182 -34 58 -80 137 -101 175 -21 37 -53 91 -69
118 -17 28 -56 95 -87 150 -113 199 -143 252 -198 345 -30 52 -79 136 -108
185 -28 50 -68 117 -87 150 -20 33 -54 94 -77 135 -84 152 -164 280 -189 304
-30 29 -101 42 -140 26z m4849 -4055 c0 -140 2 -165 15 -165 8 0 15 -7 15 -15
0 -12 -13 -15 -55 -15 -40 0 -55 4 -55 14 0 8 7 16 15 20 12 4 15 30 15 140 0
115 -2 136 -17 144 -28 16 -8 42 32 42 l35 0 0 -165z m-151 31 c33 -18 51 -54
51 -105 0 -82 -37 -131 -100 -131 -76 0 -117 57 -107 147 9 84 83 126 156 89z
m628 3 c9 -9 20 -9 44 0 46 16 66 14 89 -9 17 -17 20 -33 20 -105 0 -69 3 -85
15 -85 8 0 15 -7 15 -15 0 -12 -13 -15 -55 -15 -42 0 -55 3 -55 15 0 8 5 15
10 15 13 0 13 157 0 165 -6 4 -22 -1 -35 -9 -23 -15 -25 -23 -25 -85 0 -52 4
-70 15 -75 33 -12 12 -26 -40 -26 -57 0 -63 4 -42 31 7 9 11 38 10 65 -1 27
-2 61 -2 77 -1 33 -22 36 -51 7 -26 -26 -29 -137 -5 -146 8 -4 15 -12 15 -19
0 -17 -285 -28 -312 -12 -15 10 -18 25 -18 98 0 68 -3 88 -15 93 -8 3 -15 12
-15 21 0 11 11 15 40 15 l39 0 3 -97 3 -98 30 0 30 0 3 74 c2 42 -2 79 -8 85
-22 22 -10 36 30 36 l40 0 0 -99 c0 -97 0 -99 24 -103 37 -7 46 9 46 88 0 55
-4 73 -15 78 -8 3 -15 13 -15 22 0 14 8 16 49 12 28 -3 56 -1 63 3 19 12 62
11 75 -2z m357 -20 c17 -20 26 -43 26 -65 l0 -34 -63 0 c-35 0 -66 -3 -70 -6
-3 -3 -1 -19 5 -35 12 -34 44 -46 88 -31 28 10 30 9 30 -12 0 -26 -21 -36 -83
-36 -29 0 -46 7 -68 29 -25 25 -29 37 -29 85 0 73 13 104 52 121 53 23 83 19
112 -16z m-1284 8 c0 -7 -5 -18 -11 -24 -8 -8 -8 -21 1 -50 18 -56 26 -59 40
-16 7 21 17 43 22 49 5 8 3 14 -7 18 -8 3 -15 12 -15 21 0 12 12 15 55 15 42
0 55 -4 55 -15 0 -8 -8 -19 -17 -24 -10 -5 -33 -51 -52 -106 -32 -90 -35 -96
-60 -93 -23 3 -28 12 -50 83 -13 44 -28 82 -33 83 -4 2 -6 8 -3 12 3 5 -4 14
-15 20 -11 6 -20 17 -20 25 0 11 13 15 55 15 38 0 55 -4 55 -13z m-8882 -4444
l2 -4321 -77 -5 c-92 -6 -3452 1 -3503 8 -19 2 -262 6 -540 10 -1408 16 -3254
83 -4115 150 -493 39 -876 88 -988 128 l-62 22 -3 4001 c-2 3194 1 4004 10
4011 147 117 1862 233 4178 283 256 5 557 12 670 15 113 2 493 8 845 11 352 4
642 8 644 10 2 2 663 2 1470 1 l1466 -2 3 -4322z m9780 3653 l23 -43 -39 -159
c-39 -158 -424 -1654 -444 -1727 -6 -22 -7 -42 -2 -46 5 -5 60 -21 122 -36
l114 -28 28 -46 c16 -25 27 -47 25 -50 -4 -4 -281 61 -350 82 -36 11 -40 16
-39 42 1 17 34 154 73 305 78 297 161 622 246 955 186 733 203 795 213 795 4
0 17 -20 30 -44z m1902 -2701 c0 -14 -4 -26 -10 -26 -51 -7 -3878 -3 -3886 3
-7 5 -10 18 -7 28 5 20 26 20 1954 20 l1949 0 0 -25z m-630 -650 c0 -131 -4
-215 -10 -215 -5 0 -10 86 -12 215 -2 167 0 215 10 215 9 0 12 -50 12 -215z
m-2382 67 c2 -14 11 -22 23 -22 10 0 19 -7 19 -15 0 -8 -9 -15 -20 -15 -18 0
-20 -7 -20 -66 0 -57 3 -67 20 -71 33 -9 24 -33 -13 -33 -47 0 -57 15 -57 87
0 35 -6 73 -12 84 -10 17 -10 23 0 26 6 3 12 13 12 23 0 35 43 37 48 2z m-408
-24 c8 0 29 3 46 7 48 11 64 -12 64 -92 0 -50 4 -69 17 -78 9 -7 13 -17 9 -23
-9 -15 -65 -15 -86 -2 -13 9 -13 12 3 24 24 18 25 121 1 130 -29 11 -44 -13
-44 -68 0 -29 5 -57 11 -63 18 -18 1 -33 -36 -33 -38 0 -52 13 -33 31 9 7 12
31 10 68 -4 62 -11 75 -35 65 -13 -5 -17 -20 -17 -69 0 -40 4 -65 12 -67 24
-8 -5 -28 -42 -28 -45 0 -57 12 -35 33 17 18 21 122 5 132 -5 3 -10 12 -10 20
0 14 84 26 125 17 11 -2 27 -4 35 -4z m590 -6 c16 -13 23 -30 24 -58 l1 -39
-52 -3 c-57 -3 -67 -16 -35 -45 14 -13 25 -15 49 -8 23 7 33 6 36 -4 9 -21
-15 -35 -59 -35 -60 0 -86 24 -91 86 -4 56 11 93 47 111 34 17 54 16 80 -5z
m-390 -65 c0 -80 11 -102 42 -86 14 8 18 22 18 69 0 33 -4 60 -10 60 -5 0 -10
7 -10 15 0 10 11 15 35 15 l35 0 0 -80 c0 -47 4 -80 10 -80 6 0 10 -8 10 -19
0 -16 -9 -19 -75 -19 -68 -1 -76 1 -90 22 -11 16 -15 42 -13 81 3 40 0 59 -9
62 -28 11 -13 33 22 33 l35 0 0 -73z m2590 -732 l0 -215 -77 0 -78 0 3 215 3
215 74 0 75 0 0 -215z m-2812 113 c3 -23 -1 -28 -17 -28 -12 0 -21 5 -21 10 0
6 -7 10 -15 10 -10 0 -15 -10 -15 -29 0 -29 2 -30 53 -33 l52 -3 3 -75 c3 -84
10 -97 41 -81 17 10 21 21 21 63 0 36 -5 54 -17 63 -22 16 -8 35 27 35 l29 0
3 -82 c3 -81 4 -83 27 -83 25 0 25 0 25 110 1 83 -2 113 -13 121 -20 16 -5 34
30 34 l29 0 0 -130 c0 -115 2 -130 18 -139 34 -18 42 6 42 118 0 82 -3 108
-16 122 -15 17 -14 19 10 25 53 13 56 6 56 -136 0 -80 4 -130 10 -130 6 0 10
-6 10 -14 0 -12 -28 -15 -157 -16 -87 -1 -166 -1 -176 -1 -36 0 -46 21 -49 94
-3 70 -4 72 -30 75 l-28 3 0 -70 c0 -41 4 -71 10 -71 6 0 10 -7 10 -15 0 -11
-12 -15 -45 -15 -33 0 -45 4 -45 14 0 8 5 18 10 21 14 9 12 111 -2 136 -10 17
-10 23 0 26 6 3 12 20 12 38 0 47 23 67 74 63 36 -3 41 -6 44 -30z m590 -96
c4 -29 -26 -42 -44 -17 -7 10 -20 15 -29 12 -27 -11 -16 -34 25 -50 100 -39
56 -141 -52 -120 -18 3 -28 13 -31 30 -6 31 20 44 39 19 14 -20 49 -18 49 3 0
8 -18 24 -40 35 -33 17 -41 27 -43 54 -5 49 12 63 72 60 44 -3 51 -6 54 -26z
m180 5 c5 -23 -15 -47 -34 -40 -7 3 -12 9 -9 13 4 6 -16 20 -30 20 -15 0 -35
-37 -35 -63 0 -51 25 -78 68 -75 48 4 51 -22 4 -34 -48 -13 -104 16 -116 59
-12 43 0 99 27 123 29 28 120 25 125 -3z m142 2 c0 -12 -7 -19 -18 -19 -30 0
-42 -21 -42 -72 0 -34 5 -50 15 -54 8 -4 15 -12 15 -20 0 -10 -13 -14 -44 -14
-48 0 -68 16 -45 34 16 13 14 112 -2 133 -19 22 0 32 61 32 52 -1 60 -3 60
-20z m142 4 c11 -10 18 -30 18 -55 l0 -38 -55 0 c-60 0 -63 -4 -39 -38 14 -20
22 -22 56 -17 35 6 39 5 36 -11 -5 -25 -69 -36 -106 -17 -39 20 -52 42 -52 89
0 59 38 104 88 104 19 0 44 -7 54 -17z m171 2 c18 -17 31 -70 22 -85 -3 -5
-28 -10 -56 -10 -41 0 -49 -3 -49 -19 0 -29 24 -43 63 -36 19 4 37 2 41 -3 10
-17 -20 -33 -64 -35 -35 -1 -46 3 -67 28 -22 25 -25 36 -21 83 4 42 10 60 28
74 27 22 83 24 103 3z m207 -5 c5 -10 10 -48 10 -84 0 -37 4 -66 10 -66 6 0
10 -7 10 -15 0 -11 -11 -15 -39 -15 -42 0 -61 14 -42 33 6 6 11 37 11 68 0 60
-10 74 -42 57 -14 -7 -18 -22 -18 -68 0 -33 4 -60 10 -60 6 0 10 -7 10 -15 0
-11 -12 -15 -45 -15 -33 0 -45 4 -45 14 0 8 5 18 10 21 6 3 10 33 10 65 0 32
-4 62 -10 65 -5 3 -10 12 -10 20 0 11 19 14 80 14 68 0 81 -3 90 -19z m1270
-807 l0 -217 -21 20 c-20 20 -21 31 -19 193 l1 171 -1217 0 c-1119 0 -1219 1
-1236 17 -10 9 -18 20 -18 25 0 4 565 8 1255 8 l1255 0 0 -217z m-19902 -4418
l2 -429 -45 44 -45 44 0 343 0 343 -102 0 -102 0 -38 37 c-21 20 -38 41 -38
45 0 5 82 7 183 6 l182 -3 3 -430z m20015 418 c-7 -2 -19 -2 -25 0 -7 3 -2 5
12 5 14 0 19 -2 13 -5z m-80 -18 c-142 -44 -254 -178 -284 -340 -34 -186 92
-401 274 -467 41 -15 44 -18 17 -13 -122 20 -259 150 -302 287 -60 195 34 423
212 513 42 22 78 33 105 33 11 1 1 -5 -22 -13z m-920 -152 c-7 -2 -19 -2 -25
0 -7 3 -2 5 12 5 14 0 19 -2 13 -5z m2050 0 c-7 -2 -19 -2 -25 0 -7 3 -2 5 12
5 14 0 19 -2 13 -5z m-2112 -14 c-87 -35 -153 -137 -152 -236 0 -32 5 -71 10
-86 19 -50 62 -104 96 -123 33 -17 46 -34 27 -34 -17 0 -90 59 -112 90 -25 35
-50 110 -50 150 0 50 30 126 66 168 36 43 96 81 124 81 8 0 4 -5 -9 -10z
m2039 -5 c-54 -23 -108 -82 -130 -141 -24 -65 -25 -102 -4 -172 17 -59 75
-124 134 -153 19 -10 29 -18 22 -18 -23 0 -86 38 -119 72 -91 95 -97 248 -13
350 29 35 101 78 130 78 8 -1 -1 -8 -20 -16z m-21377 -227 c-2 -98 -3 -107
-14 -107 -19 0 -69 58 -69 80 0 25 54 84 72 78 7 -3 11 -23 11 -51z m20415
-434 c-10 -2 -26 -2 -35 0 -10 3 -2 5 17 5 19 0 27 -2 18 -5z"/>
<path d="M22476 18388 c-9 -12 -16 -41 -16 -63 0 -73 54 -114 78 -60 25 56 5
145 -33 145 -8 0 -21 -10 -29 -22z"/>
<path d="M23453 18398 c-27 -35 -25 -38 23 -38 46 0 46 0 32 23 -18 26 -41 33
-55 15z"/>
<path d="M22162 14288 c-19 -19 -14 -28 12 -28 29 0 44 19 25 31 -18 12 -23
11 -37 -3z"/>
<path d="M22595 13524 c-21 -21 -19 -24 15 -24 19 0 30 5 30 14 0 21 -27 27
-45 10z"/>
<path d="M22772 13528 c-18 -18 -14 -28 11 -28 30 0 40 10 26 27 -14 16 -22
16 -37 1z"/>
</g>
</svg>
