<?xml version="1.0" standalone="no"?>
<!DOCTYPE svg PUBLIC "-//W3C//DTD SVG 1.1//EN" "http://www.w3.org/Graphics/SVG/1.1/DTD/svg11.dtd" >
<svg xmlns="http://www.w3.org/2000/svg">
<metadata></metadata>
<defs>
<font id="gamecubendualset" horiz-adv-x="3440" >
<font-face units-per-em="2048" ascent="1638" descent="-410" />
<missing-glyph horiz-adv-x="847" />
<glyph horiz-adv-x="0" />
<glyph unicode="&#xd;" horiz-adv-x="847" />
<glyph unicode=" "  horiz-adv-x="847" />
<glyph unicode="&#x09;" horiz-adv-x="847" />
<glyph unicode="&#xa0;" horiz-adv-x="847" />
<glyph unicode="!" horiz-adv-x="952" d="M0 0v287h477v-287h-477zM0 453v1185h477v-1185h-477z" />
<glyph unicode="&#x22;" horiz-adv-x="872" d="M0 1311v327h162v-327h-162zM225 1311v327h162v-327h-162z" />
<glyph unicode="#" horiz-adv-x="1509" d="M14 451v237h205l33 254h-170v240h201l16 211h203l-17 -211h203l17 211h200l-16 -211h176v-240h-207l-33 -254h170v-237l-196 -2l-29 -232h-203l29 232h-203l-28 -232h-203l28 232zM422 688h203l32 254h-202z" />
<glyph unicode="$" horiz-adv-x="1234" d="M0 569h258q0 -94 12 -133q21 -72 84 -82v363q-158 96 -223 164q-115 119 -115 278q0 305 338 338v141h80v-141q188 0 266 -98q68 -88 68 -279h-246q0 166 -88 183v-336q190 -117 234 -158q123 -117 123 -291q0 -358 -357 -358v-160h-80v160q-207 0 -286 106 q-68 92 -68 303zM274 1176q0 -92 80 -158v285q-80 -27 -80 -127zM434 354q96 20 96 140q0 100 -96 172v-312z" />
<glyph unicode="%" horiz-adv-x="2011" d="M0 1206q0 201 59 299q74 125 263 125q186 0 260 -127q59 -96 59 -297q0 -197 -59 -288q-74 -113 -260 -113q-188 0 -263 113q-59 90 -59 288zM211 1231q0 -121 6 -160q17 -88 105 -88q82 0 102 90q6 29 6 158q0 102 -10 139q-25 82 -98 82q-74 0 -97 -80 q-14 -47 -14 -141zM381 0l653 1638h166l-651 -1638h-168zM954 430q0 201 58 297q76 125 264 125q184 0 260 -125q59 -98 59 -297q0 -197 -59 -289q-76 -112 -260 -112q-188 0 -262 110q-59 90 -60 291zM1165 455q0 -123 6 -160q17 -90 105 -90q82 0 102 92q6 29 6 158 q0 100 -10 139q-25 82 -98 82q-74 0 -96 -80q-14 -49 -15 -141z" />
<glyph unicode="&#x26;" horiz-adv-x="1843" d="M0 481q0 250 311 453q-82 106 -118 176q-57 109 -58 221q0 154 172 240q137 68 307 67q147 0 258 -63q143 -84 144 -246q0 -137 -84 -248q-37 -47 -187 -178l250 -325q35 129 35 315h268q0 -172 -12 -266q-23 -162 -94 -275l238 -325h-326l-96 125q-156 -152 -441 -152 q-258 0 -403 111q-164 123 -164 370zM332 481q0 -113 63.5 -178t177.5 -65q162 0 242 104l-323 395q-160 -123 -160 -256zM440 1315q0 -63 35 -123q21 -39 80 -107q158 100 158 218q0 137 -135 137q-55 0 -96.5 -36t-41.5 -89z" />
<glyph unicode="'" horiz-adv-x="647" d="M0 1311v327h162v-327h-162z" />
<glyph unicode="(" horiz-adv-x="804" d="M0 834q0 227 113 573q29 90 86 231h147q-55 -233 -80 -376q-43 -236 -43 -431q0 -231 43 -450q33 -152 80 -381h-147l-90 270q-109 340 -109 564z" />
<glyph unicode=")" horiz-adv-x="802" d="M0 2q55 233 80 377q43 236 43 428q0 233 -45 450q-31 152 -78 383h147l91 -272q109 -338 108 -563q0 -225 -113 -572q-29 -90 -86 -231h-147z" />
<glyph unicode="*" horiz-adv-x="1421" d="M623 1341l116 54l-108 51l28 47l107 -53v112h55v-112l107 55l30 -45l-108 -53l108 -58l-28 -45l-107 58v-121h-55v123l-113 -60z" />
<glyph unicode="+" horiz-adv-x="1396" d="M553 774v82h141v148h92v-148h140v-82h-140v-145h-92v145h-141z" />
<glyph unicode="," horiz-adv-x="802" d="M115 -147l51 288h166l-96 -288h-121z" />
<glyph unicode="-" d="M2980 1976v174h706v-174h-706z" />
<glyph unicode="." horiz-adv-x="804" d="M102 2v203h230v-203h-230z" />
<glyph unicode="/" horiz-adv-x="1107" d="M0 0l475 1638h205l-473 -1638h-207z" />
<glyph unicode="0" horiz-adv-x="2076" d="M0 377v880q0 217 77 299t290 82h874q215 0 291 -81.5t76 -299.5v-880q0 -215 -77 -296t-290 -81h-874q-213 0 -290 81t-77 296zM336 287h936v1077h-936v-1077zM664 745v152q0 66 63 66h150q63 0 63 -66v-152q0 -66 -63 -65h-150q-63 0 -63 65z" />
<glyph unicode="1" horiz-adv-x="1150" d="M0 1370v268h676v-1638h-336v1370h-340z" />
<glyph unicode="2" horiz-adv-x="1884" d="M0 162q-2 86 45 145q29 37 160 129l964 682v246h-1015v274h974q217 0 293 -66.5t76 -283.5v-104q0 -117 -35 -180q-25 -43 -170 -146l-805 -571h1012v-287h-1395q-31 4 -51 20q-51 41 -53 142z" />
<glyph unicode="3" horiz-adv-x="1914" d="M0 1362v276h1030q201 0 275 -57q88 -66 88 -258v-178q0 -266 -230 -309q273 -37 293 -324v-168q0 -203 -94 -278q-84 -66 -293 -66h-1057v287h953q88 0 120.5 28.5t32.5 116.5v117q0 88 -32.5 116.5t-120.5 28.5h-545v285h483q92 0 123 28.5t31 96.5v82q0 121 -31 149.5 t-123 28.5z" />
<glyph unicode="4" horiz-adv-x="1810" d="M0 352v273l754 1013h491v-1013h111v-273h-111v-352h-303v352h-942zM340 625h602v798z" />
<glyph unicode="5" horiz-adv-x="1884" d="M0 0v283h1182v413h-1178v742q0 186 156 200h1208v-276h-1071v-387h860q289 0 311 -211q-4 -227 0 -557q2 -193 -311 -207h-1157z" />
<glyph unicode="6" horiz-adv-x="1859" d="M0 211l2 1225q0 188 162 202h584v-264h-455l2 -399h948q207 0 223 -213q-2 -225 0 -555q2 -193 -223 -207h-995q-248 14 -248 211zM293 283h887v413h-887v-413z" />
<glyph unicode="7" horiz-adv-x="1849" d="M0 1376v262h1444v-256l-840 -1382h-407l864 1376h-1061z" />
<glyph unicode="8" horiz-adv-x="2088" d="M0 344v170q0 283 340 322q-156 31 -225 90q-82 72 -82 219v178q0 193 90 258q74 57 276 57h828q203 0 278 -57q88 -66 88 -258v-178q0 -147 -82 -221q-68 -59 -225 -88q344 -39 344 -322v-170q0 -203 -96 -278q-84 -66 -295 -66h-852q-209 0 -293 66q-94 76 -94 278z M336 432q0 -90 30.5 -117.5t122.5 -27.5h650q90 0 120.5 28.5t30.5 116.5v119q0 88 -30.5 117.5t-120.5 29.5h-650q-92 0 -122.5 -29.5t-30.5 -117.5v-119zM371 1104q0 -86 32.5 -114.5t122.5 -28.5h578q88 0 120.5 28.5t32.5 114.5v80q0 123 -31.5 151.5t-121.5 28.5h-578 q-92 0 -123.5 -29.5t-31.5 -150.5v-80z" />
<glyph unicode="9" horiz-adv-x="1935" d="M0 877q2 225 0 555q-2 193 223 206h953q290 -14 290 -211l-2 -1224q0 -188 -161 -203h-1280v264h1151l-3 400h-948q-207 0 -223 213zM287 942h887v414h-887v-414z" />
<glyph unicode=":" horiz-adv-x="827" d="M0 0v428h389v-428h-389zM0 1210v428h389v-428h-389z" />
<glyph unicode=";" horiz-adv-x="894" d="M0 0l109 625l360 -2l-207 -623h-262zM109 1286v352h325v-352h-325z" />
<glyph unicode="&#x3c;" horiz-adv-x="1419" d="M225 743v148l746 338v-164l-553 -250l553 -242v-163z" />
<glyph unicode="=" horiz-adv-x="1847" d="M936 618v158h459v-158h-459zM936 897v158h459v-158h-459z" />
<glyph unicode="&#x3e;" horiz-adv-x="1517" d="M356 410l2 163l553 250l-553 242l-2 164l748 -334v-147z" />
<glyph unicode="?" horiz-adv-x="1636" d="M0 1182q0 197 74 286q137 170 551 170q227 0 389 -69q217 -96 217 -295q0 -209 -236 -400q-20 -14 -164 -137q-74 -74 -73 -147v-160h-344v229q0 68 57 148q29 41 123 147q176 199 176 295q0 162 -192 162q-117 0 -156 -76q-25 -45 -25 -153h-397zM389 0v266h402v-266 h-402z" />
<glyph unicode="@" horiz-adv-x="1632" d="M287 696q0 188 130 317.5t318 129.5q205 0 316 -131q88 -104 88 -230q0 -123 -68 -223q-78 -115 -194 -115q-70 0 -82 70h-4q-53 -70 -140 -70q-76 0 -116 70q-35 57 -35 139q0 111 55 187q63 86 170 86q90 0 119 -70l14 55h111l-60 -352q0 -20 23 -20q55 0 92 82 q31 68 31 129q0 180 -129 258q-84 51 -191 51q-152 0 -258 -105.5t-106 -257.5q0 -154 106.5 -260t257.5 -106q152 0 256 106h109q-59 -88 -157.5 -139t-207.5 -51q-188 0 -318 131t-130 319zM621 645q0 -106 67 -106q129 0 129 211q0 92 -78 92q-61 0 -94 -72 q-25 -55 -24 -125z" />
<glyph unicode="A" horiz-adv-x="2746" d="M0 0l147 242l836 1396h449l931 -1638h-485l-670 1190l-473 -844h473v-346h-1208z" />
<glyph unicode="B" horiz-adv-x="2392" d="M0 0v1638h1747q164 0 176 -221l-2 -413q1 -11 1 -22q0 -141 -177 -153h13q151 0 163 -180v-436q0 -199 -174 -213h-1747zM430 362h1024q61 0 62 97v67q0 96 -62 97h-1024v-261zM430 1036h1024q61 0 62 97v67q0 94 -62 94h-1024v-258z" />
<glyph unicode="C" horiz-adv-x="2338" d="M0 238q2 150 2 451t-2 755q0 180 311 194h1291q293 0 315 -194v-453h-404v297h-1114v-946h1119v346h401l2 -448q2 -15 2 -28q0 -127 -151 -181q-72 -27 -173 -31q-131 -1 -471 -1t-890 1q-221 0 -238 238z" />
<glyph unicode="D" horiz-adv-x="2568" d="M0 0v1638h1393q453 0 632 -407q76 -168 91 -406q-14 -242 -91 -411q-179 -414 -632 -414h-1393zM406 336h892q266 0 375 242q43 102 53 243q-10 139 -53 240q-106 239 -371 239h-2h-894v-964z" />
<glyph unicode="E" horiz-adv-x="2109" d="M0 0h1737v360h-1311v293h770v357h-772v293h1317v335h-1741v-1638z" />
<glyph unicode="F" horiz-adv-x="2045" d="M0 0h426v653h770v357h-772v293h1317v335h-1741v-1638z" />
<glyph unicode="G" horiz-adv-x="2379" d="M0 238q16 -238 238 -238h1431q287 16 287 238l-2 755h-998v-305h598v-346h-1155v948h1557v348h-1645q-311 -14 -311 -194v-1206z" />
<glyph unicode="H" horiz-adv-x="2473" d="M0 0h410v614h1181v-614h408v1638h-408v-614h-1181v614h-410v-1638z" />
<glyph unicode="I" horiz-adv-x="952" d="M0 0v1638h477v-1638h-477z" />
<glyph unicode="J" horiz-adv-x="2181" d="M0 213q0 -199 174 -213q128 -1 453 -1t846 1q219 0 235 238v1400h-399v-1296h-908v346h-401v-475z" />
<glyph unicode="K" horiz-adv-x="2369" d="M0 0h410v594l237 156l762 -750h584l-998 981l963 657h-674l-874 -555v555h-410v-1638z" />
<glyph unicode="L" horiz-adv-x="2011" d="M0 0v1638h426v-1278h1311v-360h-1737z" />
<glyph unicode="M" horiz-adv-x="2695" d="M0 0h455v846l485 -846h322l507 866v-866h455v1638h-409l-713 -1075l-656 1075h-446v-1638z" />
<glyph unicode="N" horiz-adv-x="2580" d="M0 0h408l2 1083l1284 -1083h415v1638h-415v-1052l-1286 1052h-408v-1638z" />
<glyph unicode="O" horiz-adv-x="2387" d="M0 238q2 150 2 451t-2 755q0 180 311 194h1311q274 0 295 -186l2 -1221q0 -215 -297 -231q-131 -1 -477 -1t-907 1q-221 0 -238 238zM399 344h1114v944h-1114v-944z" />
<glyph unicode="P" horiz-adv-x="2275" d="M0 1638h1745q162 0 174 -221v-598q0 -162 -176 -174l-1315 -2v-643h-426zM428 1036h1024q61 0 61 97v67q0 96 -61 96h-1024v-260z" />
<glyph unicode="Q" horiz-adv-x="2144" d="M6 246q2 150 2 451t-2 753q0 178 324 192h1360q285 0 307 -186v-1214q0 -23 -8 -56l376 -360h-602l-190 184h-1321q-229 0 -246 236zM422 352h790l-260 252h600l25 -24v714h-1155v-942z" />
<glyph unicode="R" horiz-adv-x="2512" d="M0 1638h1745q162 0 174 -221v-598q0 -162 -176 -174h-301l653 -645h-582l-655 645l-430 -2v-643h-426zM428 1036h1024q61 0 61 97v67q0 96 -61 96h-1024v-260z" />
<glyph unicode="S" horiz-adv-x="2340" d="M0 0v342h1513v299h-1200q-311 16 -311 209v594q0 180 311 194h1608v-350h-1520v-301h1250q250 0 268 -172v-614q-18 -201 -266 -201h-1653z" />
<glyph unicode="T" horiz-adv-x="2353" d="M0 1305h750v-1305h477v1305h772v333h-1999v-333z" />
<glyph unicode="U" horiz-adv-x="2340" d="M0 254v1384h410v-1286h1042v1286h418v-1380q0 -240 -258 -258h-1368q-225 0 -244 254z" />
<glyph unicode="V" horiz-adv-x="2666" d="M0 1638l940 -1638h322l1030 1638h-477l-713 -1075l-656 1075h-446z" />
<glyph unicode="W" horiz-adv-x="2971" d="M0 1638zM0 1638l242 -1638h409l611 1075l550 -1075h447l264 1638h-452l-164 -845l-486 845h-321l-508 -866l-137 866h-455z" />
<glyph unicode="X" horiz-adv-x="2715" d="M0 0h676l483 481l481 -481h678l-821 819l821 819h-678l-481 -479l-481 479h-678l821 -819z" />
<glyph unicode="Y" horiz-adv-x="2662" d="M0 1638h678l481 -479l479 479h680l-921 -919l2 -719h-479l2 719z" />
<glyph unicode="Z" horiz-adv-x="2060" d="M0 0h1647v352h-1059l1059 957v329h-1647v-333l1087 2l-1087 -955v-352z" />
<glyph unicode="[" horiz-adv-x="860" d="M20 0v1638h396v-161h-189v-1315h189v-162h-396z" />
<glyph unicode="\" horiz-adv-x="1105" d="M0 1638h205l475 -1638h-207z" />
<glyph unicode="]" horiz-adv-x="870" d="M0 0v162h190v1315h-190v161h397v-1638h-397z" />
<glyph unicode="^" horiz-adv-x="2000" d="M541 1028l276 361h199l276 -361h-192l-182 254l-183 -254h-194z" />
<glyph unicode="_" horiz-adv-x="10113" d="M2802 -6h4493v1692h-4493v-1692z" />
<glyph unicode="`" horiz-adv-x="847" />
<glyph unicode="a" horiz-adv-x="1763" d="M0 0h307l363 1149l360 -1149h307l-514 1638h-307z" />
<glyph unicode="b" horiz-adv-x="1574" d="M0 0v1638h653q182 0 293 -79q141 -100 141 -345q0 -164 -49 -243q-53 -92 -188 -119q80 -12 127 -47q35 -27 76 -90q63 -98 63 -281q0 -268 -198 -373q-120 -61 -267 -61h-651zM299 231h279q127 0 183 58.5t56 193.5q0 233 -229 234h-289v-486zM299 969h317 q88 0 134.5 59t46.5 150q0 115 -55.5 174t-143.5 59h-299v-442z" />
<glyph unicode="c" horiz-adv-x="1540" d="M0 502v637q0 207 104.5 353t251.5 146h815v-272h-694q-92 0 -153.5 -88t-61.5 -234v-454q0 -147 56.5 -236.5t146.5 -89.5h706v-264h-815q-147 0 -251.5 146.5t-104.5 355.5z" />
<glyph unicode="d" horiz-adv-x="1724" d="M0 0v1636l909 2q150 0 253.5 -139t103.5 -344v-655q0 -207 -104.5 -353.5t-252.5 -146.5h-909zM317 1405l2 -1176h410q88 0 151.5 105.5t63.5 255.5v471q0 147 -62.5 245.5t-152.5 98.5h-412z" />
<glyph unicode="e" horiz-adv-x="1562" d="M0 500v657q0 205 103.5 343t252.5 138h815l-2 -272h-692q-94 0 -151 -76q-63 -84 -64 -227v-113h909v-241h-909v-119q0 -147 56.5 -236.5t146.5 -89.5h706v-264h-815q-147 0 -251.5 146.5t-104.5 353.5z" />
<glyph unicode="f" horiz-adv-x="1519" d="M0 0v1139q0 207 104.5 353t251.5 146h815v-272h-694q-94 0 -151 -76q-63 -82 -64 -225v-113h649v-243l-649 2v-711h-262z" />
<glyph unicode="g" horiz-adv-x="1617" d="M0 502v637q0 207 104.5 353t251.5 146h815v-272h-694q-92 0 -153.5 -88t-61.5 -234v-454q0 -147 56.5 -236.5t146.5 -89.5h432v441h-233v249h507v-954h-815q-147 0 -251.5 146.5t-104.5 355.5z" />
<glyph unicode="h" horiz-adv-x="1640" d="M0 0h293v674h577v-674h295v1638h-295v-673h-575l-2 673h-293v-1638z" />
<glyph unicode="i" horiz-adv-x="768" d="M0 0h293v1638h-293v-1638z" />
<glyph unicode="j" horiz-adv-x="1687" d="M0 0v272h694q90 0 152.5 88.5t62.5 233.5v1044h305v-1138q0 -207 -104 -353.5t-252 -146.5h-858z" />
<glyph unicode="k" horiz-adv-x="1662" d="M0 6v1632l293 -6v-557l561 563h414l-817 -817l817 -817h-416l-559 561v-565z" />
<glyph unicode="l" horiz-adv-x="1497" d="M0 0h1157v293h-864v1345h-293v-1638z" />
<glyph unicode="m" horiz-adv-x="2392" d="M0 0h307v1063l508 -1063h275l520 1063v-1063h307v1638h-365l-596 -1183l-591 1183h-365v-1638z" />
<glyph unicode="n" horiz-adv-x="1695" d="M0 0v1638h365l536 -901v901h318l2 -1638h-320l-594 1063v-1063h-307z" />
<glyph unicode="o" horiz-adv-x="1646" d="M0 502v635q0 209 104.5 355t253.5 146h469q147 0 253 -146t106 -355v-635q0 -207 -105.5 -354.5t-253.5 -147.5h-469q-150 0 -254 147.5t-104 354.5zM262 592q0 -147 56.5 -237.5t146.5 -90.5h229q92 0 160 91t68 237v450q0 147 -61.5 235.5t-153.5 88.5h-228 q-92 0 -154.5 -88t-62.5 -236v-450z" />
<glyph unicode="p" horiz-adv-x="1460" d="M0 0v1638h618q436 0 437 -489q0 -481 -457 -481h-303v-668h-295zM295 920h311q80 0 129 71q45 66 45 148q0 247 -190 247h-2h-293v-466z" />
<glyph unicode="q" horiz-adv-x="1933" d="M0 502v635q0 209 104.5 355t253.5 146h469q147 0 252 -146t105 -355v-635q0 -127 -43 -238h379v-264h-447q-16 0 -33 6q-38 10 -69 37q-70 -43 -144 -43h-469q-150 0 -254 147.5t-104 354.5zM262 592q0 -147 56.5 -237.5t146.5 -90.5h229q92 0 160 92.5t68 235.5v450 q0 147 -61.5 235.5t-153.5 88.5h-228q-92 0 -154.5 -88t-62.5 -236v-450z" />
<glyph unicode="r" horiz-adv-x="1574" d="M0 4v1634h616q434 0 435 -487q0 -190 -78 -309q-51 -78 -146 -127l306 -715h-293l-287 670h-258v-666h-295zM295 922h309q80 0 129 71q45 63 45 148q0 245 -190 245h-2h-291v-464z" />
<glyph unicode="s" horiz-adv-x="1456" d="M0 440v76h319q0 -190 35 -229q45 -49 146 -49q104 0 145 48t41 132q0 102 -199 244q-147 90 -292 182q-174 147 -175 348q0 446 523 446q446 0 461 -389h-312q-6 47 -20 78q-25 49 -45 64q-36 26 -124 26h-7q-170 0 -170 -168q0 -61 59 -146t143 -134l322 -197 q174 -141 174 -350q0 -133 -47 -215q-41 -74 -135 -129q-129 -78 -369 -78q-473 0 -473 440z" />
<glyph unicode="t" horiz-adv-x="1619" d="M0 1346v292h1223v-292h-475v-1346h-293v1346h-455z" />
<glyph unicode="u" horiz-adv-x="1687" d="M0 500v1138h305v-1044q0 -145 62.5 -233.5t152.5 -88.5h174l164 -272h-502q-147 0 -251.5 146.5t-104.5 353.5zM694 272q90 0 152.5 88.5t62.5 233.5v1044h305v-1138q0 -207 -104 -353.5t-252 -146.5z" />
<glyph unicode="v" horiz-adv-x="1763" d="M0 1638l516 -1638h307l514 1638h-307l-362 -1149l-361 1149h-307z" />
<glyph unicode="w" horiz-adv-x="2502" d="M0 1638l516 -1638h307l215 686l217 -686h308l516 1638h-307l-371 -1192l-248 728h-217l-252 -732l-377 1196h-307z" />
<glyph unicode="x" horiz-adv-x="1644" d="M0 1636h332l276 -530l279 532h330l-445 -850v5l414 -793h-332l-248 471l-246 -471h-329l413 795z" />
<glyph unicode="y" horiz-adv-x="1624" d="M0 1636l444 -843v-793l332 2v791l441 845h-330l-279 -532l-276 530h-332z" />
<glyph unicode="z" horiz-adv-x="1617" d="M0 0v315l838 1020h-838v303h1192v-360l-807 -963h807v-315h-1192z" />
<glyph unicode="{" horiz-adv-x="958" d="M0 756v162q154 0 154 190v287q0 123 48 183t169 60h137v-147q-147 0 -148 -207v-209q0 -102 -26 -151q-35 -63 -127 -84q154 -25 153 -256v-232q0 -205 148 -205v-147h-121q-139 0 -190 72q-43 59 -43 204v293q0 186 -154 187z" />
<glyph unicode="|" horiz-adv-x="655" d="M0 0v1638h182v-1638h-182z" />
<glyph unicode="}" horiz-adv-x="952" d="M0 0v147q147 0 147 205v232q0 229 154 252q-90 23 -125 86q-29 51 -29 153v209q0 207 -147 207v147h139q119 0 170 -63q47 -55 47 -180v-287q0 -190 152 -190v-162q-152 0 -152 -187v-293q0 -143 -45 -204q-51 -72 -190 -72h-121z" />
<glyph unicode="~" horiz-adv-x="1855" d="M0 420l709 -420l710 420v813l-381 -232l-329 205l-320 -194v-391l320 -183l329 183v137l160 94v-320l-489 -286l-494 293v565l494 285l329 -197l219 133l-548 313l-709 -405v-813z" />
<glyph unicode="&#xa6;" horiz-adv-x="655" d="M0 0v1638h182v-1638h-182z" />
<glyph unicode="&#xad;" d="M2980 1976v174h706v-174h-706z" />
<glyph unicode="&#x2000;" horiz-adv-x="1075" />
<glyph unicode="&#x2001;" horiz-adv-x="2150" />
<glyph unicode="&#x2002;" horiz-adv-x="1075" />
<glyph unicode="&#x2003;" horiz-adv-x="2150" />
<glyph unicode="&#x2004;" horiz-adv-x="716" />
<glyph unicode="&#x2005;" horiz-adv-x="537" />
<glyph unicode="&#x2006;" horiz-adv-x="358" />
<glyph unicode="&#x2007;" horiz-adv-x="358" />
<glyph unicode="&#x2008;" horiz-adv-x="268" />
<glyph unicode="&#x2009;" horiz-adv-x="430" />
<glyph unicode="&#x200a;" horiz-adv-x="119" />
<glyph unicode="&#x2010;" d="M2980 1976v174h706v-174h-706z" />
<glyph unicode="&#x2011;" d="M2980 1976v174h706v-174h-706z" />
<glyph unicode="&#x2012;" d="M2980 1976v174h706v-174h-706z" />
<glyph unicode="&#x2013;" horiz-adv-x="3758" d="M2980 1976v174h1024v-174h-1024z" />
<glyph unicode="&#x2014;" horiz-adv-x="4782" d="M2980 1976v174h2048v-174h-2048z" />
<glyph unicode="&#x202f;" horiz-adv-x="430" />
<glyph unicode="&#x205f;" horiz-adv-x="537" />
<glyph unicode="&#x25fc;" horiz-adv-x="1638" d="M0 0v1638h1638v-1638h-1638z" />
</font>
</defs>
</svg>
