<svg version="1" xmlns="http://www.w3.org/2000/svg" width="613.333" height="613.333" viewBox="0 0 460.000000 460.000000"><path d="M196.9 8.4c-8.6 2.4-16.3 6.9-22.4 13.2l-6 6.1-69.5.1c-38.2 0-70.1.1-70.7.1-1 .1-1.3 13-1.3 60.9v60.8l-5.4 3.9c-5.5 4-12 11.4-15 17.2-6 11.7-5.9 29.4.1 42.1 2.9 6.1 16 20.2 18.8 20.2 1.3 0 1.5 11.1 1.5 99.5 0 94.1.1 99.5 1.8 99.6.9.1 11.5.1 23.4.1l21.8.1 3.6 4.4c6 7.3 9.5 10.2 16.9 13.8 8.6 4.3 12.9 5.2 22.5 5 13.9-.2 27.2-6.7 35.9-17.5l4.4-5.5 136.7-.1c75.2 0 137.1-.3 137.6-.6.7-.5 1.1-386.5.5-402.3-.1-2-.8-2-91.8-1.9l-91.8.1-4.3-4.8c-5.5-6.1-13.2-11.2-20.7-13.7-7.1-2.3-19.9-2.7-26.6-.8zm19.2 24.8c1 .2 2.4 1 3.3 1.7.9.7 1.6 1 1.6.6 0-2.1 7.9 8.3 9 11.8 1.5 4.7 1.5 15.7 0 15.7-.4 0-1.4 1.6-2.3 3.5-.9 1.9-2.2 3.5-2.7 3.5-.6 0-.9.4-.6.8.5.9-7.3 5.1-10.9 5.9-6 1.3-12.8-.2-16.9-3.6-1.6-1.3-1.8-1.3-1.1-.1.5.8-.4.2-1.8-1.3-1.5-1.5-2.7-3.2-2.7-3.8 0-.5-.4-.9-1-.9-.5 0-1-.7-1-1.5s-.4-1.5-.8-1.5c-.5 0-.9-.6-1-1.3 0-.6-.3-4-.5-7.5-.3-3.4-.1-6.5.4-6.8.5-.3.7-1 .4-1.5-.4-.5-.1-.9.5-.9s.9-.4.6-.9c-.3-.4.8-2.3 2.4-4.1 1.7-1.9 3-3.8 3-4.2 0-.5.4-.7.9-.3.6.3 1.4-.3 2-1.2.6-1 1.1-1.5 1.1-1.1 0 .4 1.4.1 3.2-.6 2.8-1.2 10.5-1.4 14.9-.4zm-55 22.5c.4 8.2 3.3 17.7 7.4 24.3 5.2 8.2 15.2 16.2 23.8 18.9 2 .7 3.7 1.6 3.8 1.9.3 2.2.4 46.9.1 47.9-.2.6-2 1.4-4 1.8-10.9 1.9-28.9 13.8-36.6 24.2l-3 3.9h-28.8c-19.4 0-28.8-.3-28.8-1 0-3-6.8-14-11.5-18.8-7.9-7.9-14.8-11.4-28.5-14.2l-2.5-.5.2-44.8c0-24.6.2-45.1.2-45.6.1-.4 24.4-.7 54.1-.7h54l.1 2.7zM407 230v177H163.4l-.2-2.7c-1.1-15.7-11.6-31.3-25.5-38.3-3.3-1.6-6.6-3-7.3-3-.6 0-1.4-.6-1.6-1.3-.4-1-.3-100.3.1-101.7.1-.4 19-.5 27.6-.1 1.2.1 4 1.9 6.4 4.1 10.1 9.5 21.9 15.2 35.5 17.3 8.9 1.4 11.2 1.4 20.1.3 12.3-1.6 27.5-9 37-18l4-3.9 20.5.1c11.3 0 21.1 0 21.8.1.9.1 1.2 4.7 1.2 19.4v19.3l-6.6 2.8c-7.6 3.3-16.3 10.9-20.9 18.1-13.7 21.6-7.5 50.7 13.8 64.8 18.6 12.4 43.9 10 59.4-5.4 25.2-25 16.3-66.4-16.9-78.8-2.1-.8-2.8-1.8-2.9-3.8 0-1.6-.1-16.1-.2-32.3l-.2-29.5-25-.2c-13.7 0-26.2-.2-27.6-.2l-2.6-.1 1.3-6.3c1.6-7.7 1.1-22.2-1.1-30.2-.9-3.3-3.6-9.8-6.1-14.5-4.8-9-5-10.1-4.5-29.8l.1-2.2h19.8l19.7.1 3.7 7.7c14 29.5 52.9 36.1 76 13 6.6-6.6 12.2-17 13.4-24.8 3.8-24.3-9.9-47-32.6-54.1-22.3-6.9-46.9 3.7-57 24.6-1.9 3.8-3.6 7.2-3.8 7.5-.2.3-14.8.5-32.5.5h-32.2l-.3 14.4c-.2 10.8-.6 14.2-1.5 13.8-.7-.2-3.9-1.3-7.2-2.3-3.3-1-6.2-1.9-6.4-2.1-.2-.1-.4-11.2-.4-24.4v-24.2l3.9-1.6c14-5.8 23.7-15.9 28.2-29.6 1.1-3.3 2.3-8.3 2.5-11 .3-2.8.6-5.1.6-5.3.1-.1 33.9-.2 75.1-.2h75v177zm-51.7-113.1c1.5.6 2.7.8 2.7.5 0-.3.7.2 1.6 1 .8.9 1.9 1.4 2.4 1.1.5-.3 1.2 0 1.6.6.5.8.3.9-.7.4-.8-.4-.3.3 1.1 1.7 1.4 1.3 2.8 2.3 3.3 2 .4-.2.7 0 .6.5-.1.4.5 2.5 1.4 4.5 2.2 4.8 2.4 15.4.4 16.9-.4.3-.9 1.4-1 2.5-.1 1-2 3.7-4.1 5.9-2.2 2.2-3.6 3.3-3.2 2.5.4-.8 0-.6-.8.4-.9 1.1-1.6 1.7-1.6 1.3 0-.4-1-.2-2.2.5-3 1.6-12.6 1.7-15.7.1-1.4-.6-2.8-1-3.3-.7-.4.3-.8 0-.8-.6 0-.5-1.5-1.9-3.2-3-1.8-1.1-2.8-2-2.3-2 .6 0 .3-.6-.6-1.3-1.3-1-3-3.8-3.3-5.7-.1-.3-.4-1-.7-1.5-.4-.6-.5-3.7-.4-7 .2-5.9 2.2-11.1 5-13.5.8-.7 1.2-1.7.8-2.4-.3-.6-.3-.8.2-.4.4.4 1.9-.2 3.3-1.2 1.3-1.1 3.1-2 3.8-2 .8 0 1.4-.5 1.4-1.1 0-.5.3-.8.8-.6.4.3 1.5.1 2.6-.2 2.4-.9 7.4-.5 10.9.8zM56.5 170.5c1.1.4 2.7.9 3.5 1.3.8.3 2 .4 2.5.3.6-.2.7 0 .3.4-.4.4.6 1.8 2.2 3.2 7.3 6.1 9.4 19 4.3 26.9-.7 1.1-1.2 2.2-1.1 2.5.2.2.2.3 0 .3-.8-.4-4.8 4.2-4.4 5 .3.5 0 .6-.6.2-.6-.3-1.6-.1-2.4.6-1.4 1.3-3.3 2-5.5 2.1-.7 0-1.3.3-1.3.6 0 .4-2.1.5-4.7.3-7.6-.5-8.3-.6-8.3-1.4 0-.4-.6-.8-1.2-.8-1.6 0-8.8-6.5-8.8-7.9 0-.6-.4-1.1-1-1.1-.5 0-1-.9-1-1.9 0-1.1-.4-2.2-.9-2.5-1.2-.8-.7-12.7.7-15.2.6-1.2.8-2.5.4-2.9-.4-.5-.2-.6.3-.2.6.3 1.7-.8 2.4-2.4.7-1.7 1.5-2.8 1.8-2.5.3.3 1.7-.6 3.1-2 1.5-1.3 3.4-2.4 4.4-2.4.9 0 1.9-.4 2.2-.8.6-.9 10.3-.8 13.1.3zm162.3 1.8c.6.5 1.2.7 1.2.4 0-.4 2 .2 4.4 1.3 2.4 1 4.7 1.6 5 1.3.3-.4.6-.1.6.5 0 .7.5 1.2 1 1.2.6 0 2 .9 3.2 2 1.2 1 2.5 1.7 3 1.4.5-.3.7-.2.6.3-.2.4 1.3 2.5 3.2 4.5 5 5.4 6 6.6 6 7.6 0 .5.7 1.5 1.5 2.2.8.7 1.2 1.6.9 2.2-.3.5-.1 1.5.5 2.2 2.6 3.1 4.1 15.6 2.8 23.6-1 6-7.2 18.8-10.4 21.3-1.3 1-2.1 2.3-1.8 2.8.4.5.2.9-.4.9-.5 0-3.8 1.9-7.3 4.2-3.5 2.4-7 4.5-7.8 4.7-8.2 2.1-12.5 2.7-18 2.4-9-.4-9.9-.6-15.1-3.1-2.5-1.2-5.1-2.2-5.7-2.2-.7 0-1.2-.5-1.2-1 0-.6-.8-1.4-1.7-1.7-2.2-.8-10.3-9-10.3-10.3 0-.6-.4-1-1-1-.5 0-1-.5-1-1.1 0-.7-.8-1.8-1.7-2.6-1-.8-1.2-1.1-.4-.8.9.5.8 0-.4-1.8-.9-1.4-1.8-3.4-2-4.4-.2-1-.4-1.8-.5-1.8-1.3 0-1.9-18.6-.6-20.3.5-.7.6-1.5.3-1.9-.3-.3 0-1.8.9-3.4.8-1.6 1.1-2.9.8-2.9-.4 0 .1-1 1.2-2.2 1-1.2 1.3-1.8.6-1.4-.7.4.6-1.9 3-5.2 2.4-3.2 4.4-5.8 4.6-5.7.6.5 4.8-4 4.4-4.8-.2-.4 0-.6.5-.5 1.1.3 7.6-3.2 8.5-4.6.4-.6.8-.7.8-.2 0 .5.7.3 1.5-.4s1.5-.9 1.5-.5.7.2 1.5-.5 1.5-1 1.5-.7c0 .4 1 .2 2.3-.2 3-1.2 17.9-1.1 19.5.2zm-76.3 43.2c.1 6.6.5 12.9.8 14 .3 1.1.7 2.7.9 3.4.2 1.3-2.8 1.5-19.7 1.7-11 .1-20.2.2-20.6.3-.3.1-.5 27.7-.5 61.3.1 33.7-.1 62.5-.3 64-.2 1.9-1.1 3-3.2 3.7-1.6.5-2.9.7-2.9.3 0-.4-.4-.2-.8.5-.4.6-1.4 1.3-2.2 1.5-.8.2-2.3 1.2-3.3 2.3-1 1.1-1.5 1.3-1.1.5.9-1.7-5.7 3.9-9.2 7.8-3.8 4.3-4.4 5.1-4.4 5.7 0 .3-1.1 2.3-2.5 4.5s-2.3 4-2 4c.3 0 0 1-.6 2.2-.6 1.2-1.4 3.6-1.6 5.2-.2 1.7-.5 4-.7 5.1-.2 1.1-.4 2.3-.5 2.7 0 .5-3.6.8-7.9.8h-7.7v-83.4c0-45.9.2-83.7.5-83.9.3-.3 1.9-.8 3.5-1 6-1.1 7.7-1.6 9.3-2.9 1.3-1 1.4-1 .8 0-.8 1.4 5.9-2.2 8.7-4.6.9-.8 1.7-1.1 1.7-.6 0 .5 2.9-2.2 6.5-5.9 3.6-3.8 6.3-7.2 6-7.7-.3-.4.1-1 .9-1.3.8-.3 2.2-3 3.1-5.9 1-2.9 1.9-5.5 2-5.8.2-.3 10.8-.5 23.5-.5l23.3.1.2 11.9zM323 323.2c1.7.4 2.1.6 7.8 5.3 2.4 1.9 4 3.5 3.6 3.5-.4 0 .1.7 1.2 1.5 1 .8 1.6 1.5 1.2 1.5-.4 0-.2 1.7.5 3.7 1.4 4.3 1.4 5.3.2 10.8-.5 2.2-.9 4.3-.9 4.7-.1.4-.7 1.3-1.3 1.9-.7.7-1.3 2-1.3 2.8 0 .8-.3 1.2-.6.9-.8-.9-4.2 2.5-3.6 3.6.3.5 0 .6-.6.2-.6-.3-1.7 0-2.5.8s-1.7 1.2-2.1.9c-.3-.4-.6-.1-.6.6s-.4.9-1 .6c-.5-.3-1.5-.3-2.2.1-1.7 1.1-9.8 1.1-9.8 0 0-.5-.3-.7-.6-.3-.4.3-2.5-.4-4.8-1.5-2.2-1.2-4.5-2.1-5.1-1.9-.5.1-.7-.1-.3-.5.4-.4.1-1.2-.7-1.8-3.2-2.5-6.2-10.6-5.9-15.9.3-7.3.9-9.2 3.8-12.9 2.7-3.5 8.5-9.1 7.3-7.1-.4.6.9.3 2.9-.6 3.4-1.7 10.5-2.1 15.4-.9zm-200.7 63.1c.9.1 1.7.5 1.7 1 0 .4.5.5 1 .2.6-.3 1-.1 1 .5s.5.8 1 .5c.6-.3 1.3.1 1.6.9.3.9 1.3 1.6 2.1 1.6s1.1.4.8 1c-.3.5.1 1 .9 1 .9 0 1.6.7 1.6 1.5s.5 1.5 1.1 1.5c.5 0 .7.4.4 1-.3.5-.2 1 .3 1s.9.6 1 1.2c0 .7.5 2.9 1 4.8 1 3.9.7 7.8-1 11.8-.6 1.5-1.2 3-1.2 3.3-.2 1.1-6.4 7.8-6.9 7.3-.2-.2-1 .2-1.7 1.1-.7.8-2.1 1.5-3.1 1.5-1.1 0-1.9.4-1.9.8 0 1-9.6.7-13-.4-1.4-.4-2.7-.6-2.9-.5-.2.2-.7-.2-1-.7-.3-.6-1.3-1.2-2.1-1.4-1.3-.3-7.4-7.5-7.5-8.8 0-.3-.4-1.1-.9-1.8-.4-.7-.9-3.9-1-7-.3-5.7 1.3-11.3 4-14.3.8-.9 1.1-1.9.7-2.4-.5-.4-.2-.5.5-.1.6.4 1.2.3 1.2-.3 0-.5.9-1.3 2-1.6 1.1-.4 1.8-1.1 1.4-1.6-.3-.5-.2-.9.3-.8.7.2 1.8-.1 6.8-2 1.1-.5 3.8-.6 6-.3 2.2.2 4.8.5 5.8.5z"/></svg>