<?xml version="1.0" standalone="no"?>
<!DOCTYPE svg PUBLIC "-//W3C//DTD SVG 20010904//EN"
 "http://www.w3.org/TR/2001/REC-SVG-20010904/DTD/svg10.dtd">
<svg version="1.0" xmlns="http://www.w3.org/2000/svg"
 width="500.000000pt" height="500.000000pt" viewBox="0 0 500.000000 500.000000"
 preserveAspectRatio="xMidYMid meet">
<metadata>
Created by potrace 1.11, written by Peter Selinger 2001-2013
</metadata>
<g transform="translate(0.000000,500.000000) scale(0.100000,-0.100000)"
fill="#000000" stroke="none">
<path d="M1052 3947 l-592 -592 0 -855 0 -855 593 -593 592 -592 855 0 855 0
593 593 592 592 0 855 0 855 -593 593 -592 592 -855 0 -855 0 -593 -593z
m2566 -330 l462 -462 0 -655 0 -655 -462 -462 -463 -463 -655 0 -655 0 -462
462 -463 463 0 655 0 655 462 462 463 463 655 0 655 0 463 -463z"/>
</g>
</svg>
